<svg width="58" height="52" viewBox="0 0 58 52" fill="none" xmlns="http://www.w3.org/2000/svg">
<g filter="url(#filter0_d_1156_282)">
<ellipse cx="29" cy="22.095" rx="25" ry="21.5053" fill="white"/>
</g>
<path fill-rule="evenodd" clip-rule="evenodd" d="M30.5378 28.5327L37.0344 23.0398C37.433 22.7028 37.433 22.1563 37.0344 21.8192L30.5378 16.3263C30.1391 15.9892 29.4928 15.9892 29.0941 16.3263C28.6955 16.6634 28.6955 17.2099 29.0941 17.5469L33.848 21.5664L22.0208 21.5664C21.457 21.5664 21 21.9528 21 22.4295C21 22.9062 21.457 23.2926 22.0208 23.2926L33.848 23.2926L29.0941 27.3121C28.6955 27.6491 28.6955 28.1956 29.0941 28.5327C29.4928 28.8698 30.1391 28.8698 30.5378 28.5327Z" fill="#F05E47"/>
<defs>
<filter id="filter0_d_1156_282" x="0" y="0.589722" width="58" height="51.0106" filterUnits="userSpaceOnUse" color-interpolation-filters="sRGB">
<feFlood flood-opacity="0" result="BackgroundImageFix"/>
<feColorMatrix in="SourceAlpha" type="matrix" values="0 0 0 0 0 0 0 0 0 0 0 0 0 0 0 0 0 0 127 0" result="hardAlpha"/>
<feOffset dy="4"/>
<feGaussianBlur stdDeviation="2"/>
<feComposite in2="hardAlpha" operator="out"/>
<feColorMatrix type="matrix" values="0 0 0 0 0 0 0 0 0 0 0 0 0 0 0 0 0 0 0.15 0"/>
<feBlend mode="normal" in2="BackgroundImageFix" result="effect1_dropShadow_1156_282"/>
<feBlend mode="normal" in="SourceGraphic" in2="effect1_dropShadow_1156_282" result="shape"/>
</filter>
</defs>
</svg>
