<svg width="1920" height="356" viewBox="0 0 1920 356" fill="none" xmlns="http://www.w3.org/2000/svg">
<path d="M-331 132L-282.263 89.7062C-281.134 88.7272 -279.458 88.7272 -278.33 89.7062L-231.559 130.294C-230.431 131.273 -228.754 131.273 -227.626 130.294L-180.855 89.7062C-179.727 88.7273 -178.051 88.7273 -176.923 89.7062L-130.151 130.294C-129.023 131.273 -127.347 131.273 -126.219 130.294L-79.4477 89.7062C-78.3197 88.7273 -76.6433 88.7273 -75.5153 89.7062L-28.744 130.294C-27.616 131.273 -25.9396 131.273 -24.8116 130.294L21.9597 89.7062C23.0877 88.7273 24.7641 88.7273 25.8921 89.7062L72.6634 130.294C73.7914 131.273 75.4678 131.273 76.5958 130.294L123.367 89.7062C124.495 88.7273 126.171 88.7273 127.3 89.7062L174.071 130.294C175.199 131.273 176.875 131.273 178.003 130.294L224.774 89.7063C225.903 88.7273 227.579 88.7273 228.707 89.7063L275.478 130.294C276.606 131.273 278.283 131.273 279.411 130.294L326.182 89.7063C327.31 88.7274 328.986 88.7274 330.114 89.7063L376.886 130.294C378.014 131.273 379.69 131.273 380.818 130.294L427.589 89.7063C428.717 88.7274 430.394 88.7274 431.522 89.7063L478.293 130.294C479.421 131.273 481.097 131.273 482.225 130.294L528.997 89.7063C530.125 88.7274 531.801 88.7274 532.929 89.7063L579.7 130.294C580.828 131.273 582.505 131.273 583.633 130.294L630.404 89.7063C631.532 88.7274 633.209 88.7274 634.337 89.7063L681.108 130.294C682.236 131.273 683.912 131.273 685.04 130.294L731.811 89.7063C732.94 88.7274 734.616 88.7274 735.744 89.7063L782.515 130.294C783.643 131.273 785.32 131.273 786.448 130.294L833.219 89.7064C834.347 88.7274 836.023 88.7274 837.151 89.7064L883.923 130.294C885.051 131.273 886.727 131.273 887.855 130.294L934.626 89.7064C935.754 88.7275 937.431 88.7275 938.559 89.7064L985.33 130.294C986.458 131.273 988.134 131.273 989.262 130.294L1036.03 89.7064C1037.16 88.7275 1038.84 88.7275 1039.97 89.7064L1086.74 130.294C1087.87 131.273 1089.54 131.273 1090.67 130.294L1137.44 89.7064C1138.57 88.7275 1140.25 88.7275 1141.37 89.7064L1188.14 130.294C1189.27 131.273 1190.95 131.273 1192.08 130.294L1238.85 89.7064C1239.98 88.7275 1241.65 88.7275 1242.78 89.7064L1289.55 130.294C1290.68 131.273 1292.36 131.273 1293.48 130.294L1340.26 89.7064C1341.38 88.7275 1343.06 88.7275 1344.19 89.7064L1390.96 130.294C1392.09 131.273 1393.76 131.273 1394.89 130.294L1441.66 89.7065C1442.79 88.7275 1444.47 88.7275 1445.6 89.7065L1492.37 130.294C1493.5 131.273 1495.17 131.273 1496.3 130.294L1543.07 89.7065C1544.2 88.7276 1545.88 88.7276 1547 89.7065L1593.77 130.294C1594.9 131.273 1596.58 131.273 1597.71 130.294L1644.48 89.7065C1645.61 88.7276 1647.28 88.7276 1648.41 89.7065L1695.18 130.294C1696.31 131.273 1697.99 131.273 1699.11 130.294L1745.89 89.7065C1747.01 88.7276 1748.69 88.7276 1749.82 89.7065L1796.59 130.294C1797.72 131.273 1799.39 131.273 1800.52 130.294L1847.29 89.7065C1848.42 88.7276 1850.1 88.7276 1851.23 89.7065L1898 130.294C1899.12 131.273 1900.8 131.273 1901.93 130.294L1948.7 89.7066C1949.83 88.7276 1951.5 88.7276 1952.63 89.7066L1999.4 130.294C2000.53 131.273 2002.21 131.273 2003.34 130.294L2050.11 89.7066C2051.24 88.7277 2052.91 88.7277 2054.04 89.7066L2100.81 130.294C2101.94 131.273 2103.62 131.273 2104.74 130.294L2151.52 89.7066C2152.64 88.7277 2154.32 88.7277 2155.45 89.7066L2202.22 130.294C2203.35 131.273 2205.02 131.273 2206.15 130.294L2252.92 89.7066C2254.05 88.7277 2255.73 88.7277 2256.86 89.7066L2303.63 130.294C2304.75 131.273 2306.43 131.273 2307.56 130.294L2354.33 89.7066C2355.46 88.7277 2357.13 88.7277 2358.26 89.7066L2407 132" stroke="white" stroke-width="3"/>
<path d="M-331 87.9999L-282.263 45.7062C-281.134 44.7272 -279.458 44.7272 -278.33 45.7062L-231.559 86.2936C-230.431 87.2725 -228.754 87.2725 -227.626 86.2936L-180.855 45.7062C-179.727 44.7273 -178.051 44.7273 -176.923 45.7062L-130.151 86.2936C-129.023 87.2726 -127.347 87.2726 -126.219 86.2936L-79.4477 45.7062C-78.3197 44.7273 -76.6433 44.7273 -75.5153 45.7062L-28.744 86.2937C-27.616 87.2726 -25.9396 87.2726 -24.8116 86.2937L21.9597 45.7062C23.0877 44.7273 24.7641 44.7273 25.8921 45.7062L72.6634 86.2937C73.7914 87.2726 75.4678 87.2726 76.5958 86.2937L123.367 45.7062C124.495 44.7273 126.171 44.7273 127.3 45.7062L174.071 86.2937C175.199 87.2726 176.875 87.2726 178.003 86.2937L224.774 45.7063C225.903 44.7273 227.579 44.7273 228.707 45.7063L275.478 86.2937C276.606 87.2726 278.283 87.2726 279.411 86.2937L326.182 45.7063C327.31 44.7274 328.986 44.7274 330.114 45.7063L376.886 86.2937C378.014 87.2726 379.69 87.2726 380.818 86.2937L427.589 45.7063C428.717 44.7274 430.394 44.7274 431.522 45.7063L478.293 86.2937C479.421 87.2727 481.097 87.2727 482.225 86.2937L528.997 45.7063C530.125 44.7274 531.801 44.7274 532.929 45.7063L579.7 86.2938C580.828 87.2727 582.505 87.2727 583.633 86.2938L630.404 45.7063C631.532 44.7274 633.209 44.7274 634.337 45.7063L681.108 86.2938C682.236 87.2727 683.912 87.2727 685.04 86.2938L731.811 45.7063C732.94 44.7274 734.616 44.7274 735.744 45.7063L782.515 86.2938C783.643 87.2727 785.32 87.2727 786.448 86.2938L833.219 45.7064C834.347 44.7274 836.023 44.7274 837.151 45.7064L883.923 86.2938C885.051 87.2727 886.727 87.2727 887.855 86.2938L934.626 45.7064C935.754 44.7275 937.431 44.7275 938.559 45.7064L985.33 86.2938C986.458 87.2728 988.134 87.2728 989.262 86.2938L1036.03 45.7064C1037.16 44.7275 1038.84 44.7275 1039.97 45.7064L1086.74 86.2938C1087.87 87.2728 1089.54 87.2728 1090.67 86.2938L1137.44 45.7064C1138.57 44.7275 1140.25 44.7275 1141.37 45.7064L1188.14 86.2939C1189.27 87.2728 1190.95 87.2728 1192.08 86.2939L1238.85 45.7064C1239.98 44.7275 1241.65 44.7275 1242.78 45.7064L1289.55 86.2939C1290.68 87.2728 1292.36 87.2728 1293.48 86.2939L1340.26 45.7064C1341.38 44.7275 1343.06 44.7275 1344.19 45.7064L1390.96 86.2939C1392.09 87.2728 1393.76 87.2728 1394.89 86.2939L1441.66 45.7065C1442.79 44.7275 1444.47 44.7275 1445.6 45.7065L1492.37 86.2939C1493.5 87.2728 1495.17 87.2728 1496.3 86.2939L1543.07 45.7065C1544.2 44.7276 1545.88 44.7276 1547 45.7065L1593.77 86.2939C1594.9 87.2729 1596.58 87.2729 1597.71 86.2939L1644.48 45.7065C1645.61 44.7276 1647.28 44.7276 1648.41 45.7065L1695.18 86.294C1696.31 87.2729 1697.99 87.2729 1699.11 86.294L1745.89 45.7065C1747.01 44.7276 1748.69 44.7276 1749.82 45.7065L1796.59 86.294C1797.72 87.2729 1799.39 87.2729 1800.52 86.294L1847.29 45.7065C1848.42 44.7276 1850.1 44.7276 1851.23 45.7065L1898 86.294C1899.12 87.2729 1900.8 87.2729 1901.93 86.294L1948.7 45.7066C1949.83 44.7276 1951.5 44.7276 1952.63 45.7066L1999.4 86.294C2000.53 87.2729 2002.21 87.2729 2003.34 86.294L2050.11 45.7066C2051.24 44.7277 2052.91 44.7277 2054.04 45.7066L2100.81 86.294C2101.94 87.2729 2103.62 87.2729 2104.74 86.294L2151.52 45.7066C2152.64 44.7277 2154.32 44.7277 2155.45 45.7066L2202.22 86.294C2203.35 87.273 2205.02 87.273 2206.15 86.294L2252.92 45.7066C2254.05 44.7277 2255.73 44.7277 2256.86 45.7066L2303.63 86.2941C2304.75 87.273 2306.43 87.273 2307.56 86.2941L2354.33 45.7066C2355.46 44.7277 2357.13 44.7277 2358.26 45.7066L2407 88.0004" stroke="white" stroke-width="2"/>
<path d="M-331 43.9999L-282.263 1.70616C-281.134 0.727245 -279.458 0.727245 -278.33 1.70616L-231.559 42.2936C-230.431 43.2725 -228.754 43.2725 -227.626 42.2936L-180.855 1.70618C-179.727 0.727262 -178.051 0.727263 -176.923 1.70618L-130.151 42.2936C-129.023 43.2726 -127.347 43.2726 -126.219 42.2936L-79.4477 1.7062C-78.3197 0.72728 -76.6433 0.727281 -75.5153 1.7062L-28.744 42.2937C-27.616 43.2726 -25.9396 43.2726 -24.8116 42.2937L21.9597 1.70622C23.0877 0.727298 24.7641 0.727299 25.8921 1.70622L72.6634 42.2937C73.7914 43.2726 75.4678 43.2726 76.5958 42.2937L123.367 1.70623C124.495 0.727316 126.171 0.727316 127.3 1.70624L174.071 42.2937C175.199 43.2726 176.875 43.2726 178.003 42.2937L224.774 1.70625C225.903 0.727333 227.579 0.727334 228.707 1.70625L275.478 42.2937C276.606 43.2726 278.283 43.2726 279.411 42.2937L326.182 1.70627C327.31 0.727351 328.986 0.727352 330.114 1.70627L376.886 42.2937C378.014 43.2726 379.69 43.2726 380.818 42.2937L427.589 1.70629C428.717 0.727369 430.394 0.72737 431.522 1.70629L478.293 42.2937C479.421 43.2727 481.097 43.2727 482.225 42.2937L528.997 1.70631C530.125 0.727387 531.801 0.727387 532.929 1.70631L579.7 42.2938C580.828 43.2727 582.505 43.2727 583.633 42.2938L630.404 1.70632C631.532 0.727405 633.209 0.727405 634.337 1.70632L681.108 42.2938C682.236 43.2727 683.912 43.2727 685.04 42.2938L731.811 1.70635C732.94 0.727427 734.616 0.727422 735.744 1.70634L782.515 42.2938C783.643 43.2727 785.32 43.2727 786.448 42.2938L833.219 1.70636C834.347 0.72744 836.023 0.727442 837.151 1.70636L883.923 42.2938C885.051 43.2727 886.727 43.2727 887.855 42.2938L934.626 1.70637C935.754 0.727453 937.431 0.727457 938.559 1.70638L985.33 42.2938C986.458 43.2728 988.134 43.2728 989.262 42.2938L1036.03 1.70639C1037.16 0.727475 1038.84 0.727477 1039.97 1.7064L1086.74 42.2938C1087.87 43.2728 1089.54 43.2728 1090.67 42.2938L1137.44 1.70641C1138.57 0.727488 1140.25 0.727493 1141.37 1.70641L1188.14 42.2939C1189.27 43.2728 1190.95 43.2728 1192.08 42.2939L1238.85 1.70643C1239.98 0.72751 1241.65 0.727513 1242.78 1.70643L1289.55 42.2939C1290.68 43.2728 1292.36 43.2728 1293.48 42.2939L1340.26 1.70644C1341.38 0.727524 1343.06 0.727528 1344.19 1.70645L1390.96 42.2939C1392.09 43.2728 1393.76 43.2728 1394.89 42.2939L1441.66 1.70647C1442.79 0.72755 1444.47 0.727547 1445.6 1.70647L1492.37 42.2939C1493.5 43.2728 1495.17 43.2728 1496.3 42.2939L1543.07 1.70648C1544.2 0.727559 1545.88 0.727564 1547 1.70648L1593.77 42.2939C1594.9 43.2729 1596.58 43.2729 1597.71 42.2939L1644.48 1.70651C1645.61 0.727585 1647.28 0.727583 1648.41 1.7065L1695.18 42.294C1696.31 43.2729 1697.99 43.2729 1699.11 42.294L1745.89 1.70652C1747.01 0.727599 1748.69 0.727601 1749.82 1.70652L1796.59 42.294C1797.72 43.2729 1799.39 43.2729 1800.52 42.294L1847.29 1.70653C1848.42 0.727614 1850.1 0.727618 1851.23 1.70654L1898 42.294C1899.12 43.2729 1900.8 43.2729 1901.93 42.294L1948.7 1.70655C1949.83 0.727634 1951.5 0.727634 1952.63 1.70655L1999.4 42.294C2000.53 43.2729 2002.21 43.2729 2003.34 42.294L2050.11 1.70658C2051.24 0.727655 2052.91 0.727656 2054.04 1.70658L2100.81 42.294C2101.94 43.2729 2103.62 43.2729 2104.74 42.294L2151.52 1.70658C2152.64 0.727667 2154.32 0.727671 2155.45 1.70659L2202.22 42.294C2203.35 43.273 2205.02 43.273 2206.15 42.294L2252.92 1.7066C2254.05 0.727685 2255.73 0.727689 2256.86 1.70661L2303.63 42.2941C2304.75 43.273 2306.43 43.273 2307.56 42.2941L2354.33 1.70662C2355.46 0.727705 2357.13 0.727704 2358.26 1.70662L2407 44.0004" stroke="white"/>
<path d="M-331 176L-282.263 133.706C-281.134 132.727 -279.458 132.727 -278.33 133.706L-231.559 174.294C-230.431 175.273 -228.754 175.273 -227.626 174.294L-180.855 133.706C-179.727 132.727 -178.051 132.727 -176.923 133.706L-130.151 174.294C-129.023 175.273 -127.347 175.273 -126.219 174.294L-79.4477 133.706C-78.3197 132.727 -76.6433 132.727 -75.5153 133.706L-28.744 174.294C-27.616 175.273 -25.9396 175.273 -24.8116 174.294L21.9597 133.706C23.0877 132.727 24.7641 132.727 25.8921 133.706L72.6634 174.294C73.7914 175.273 75.4678 175.273 76.5958 174.294L123.367 133.706C124.495 132.727 126.171 132.727 127.3 133.706L174.071 174.294C175.199 175.273 176.875 175.273 178.003 174.294L224.774 133.706C225.903 132.727 227.579 132.727 228.707 133.706L275.478 174.294C276.606 175.273 278.283 175.273 279.411 174.294L326.182 133.706C327.31 132.727 328.986 132.727 330.114 133.706L376.886 174.294C378.014 175.273 379.69 175.273 380.818 174.294L427.589 133.706C428.717 132.727 430.394 132.727 431.522 133.706L478.293 174.294C479.421 175.273 481.097 175.273 482.225 174.294L528.997 133.706C530.125 132.727 531.801 132.727 532.929 133.706L579.7 174.294C580.828 175.273 582.505 175.273 583.633 174.294L630.404 133.706C631.532 132.727 633.209 132.727 634.337 133.706L681.108 174.294C682.236 175.273 683.912 175.273 685.04 174.294L731.811 133.706C732.94 132.727 734.616 132.727 735.744 133.706L782.515 174.294C783.643 175.273 785.32 175.273 786.448 174.294L833.219 133.706C834.347 132.727 836.023 132.727 837.151 133.706L883.923 174.294C885.051 175.273 886.727 175.273 887.855 174.294L934.626 133.706C935.754 132.727 937.431 132.727 938.559 133.706L985.33 174.294C986.458 175.273 988.134 175.273 989.262 174.294L1036.03 133.706C1037.16 132.727 1038.84 132.727 1039.97 133.706L1086.74 174.294C1087.87 175.273 1089.54 175.273 1090.67 174.294L1137.44 133.706C1138.57 132.727 1140.25 132.727 1141.37 133.706L1188.14 174.294C1189.27 175.273 1190.95 175.273 1192.08 174.294L1238.85 133.706C1239.98 132.728 1241.65 132.728 1242.78 133.706L1289.55 174.294C1290.68 175.273 1292.36 175.273 1293.48 174.294L1340.26 133.706C1341.38 132.728 1343.06 132.728 1344.19 133.706L1390.96 174.294C1392.09 175.273 1393.76 175.273 1394.89 174.294L1441.66 133.706C1442.79 132.728 1444.47 132.728 1445.6 133.706L1492.37 174.294C1493.5 175.273 1495.17 175.273 1496.3 174.294L1543.07 133.706C1544.2 132.728 1545.88 132.728 1547 133.706L1593.77 174.294C1594.9 175.273 1596.58 175.273 1597.71 174.294L1644.48 133.707C1645.61 132.728 1647.28 132.728 1648.41 133.707L1695.18 174.294C1696.31 175.273 1697.99 175.273 1699.11 174.294L1745.89 133.707C1747.01 132.728 1748.69 132.728 1749.82 133.707L1796.59 174.294C1797.72 175.273 1799.39 175.273 1800.52 174.294L1847.29 133.707C1848.42 132.728 1850.1 132.728 1851.23 133.707L1898 174.294C1899.12 175.273 1900.8 175.273 1901.93 174.294L1948.7 133.707C1949.83 132.728 1951.5 132.728 1952.63 133.707L1999.4 174.294C2000.53 175.273 2002.21 175.273 2003.34 174.294L2050.11 133.707C2051.24 132.728 2052.91 132.728 2054.04 133.707L2100.81 174.294C2101.94 175.273 2103.62 175.273 2104.74 174.294L2151.52 133.707C2152.64 132.728 2154.32 132.728 2155.45 133.707L2202.22 174.294C2203.35 175.273 2205.02 175.273 2206.15 174.294L2252.92 133.707C2254.05 132.728 2255.73 132.728 2256.86 133.707L2303.63 174.294C2304.75 175.273 2306.43 175.273 2307.56 174.294L2354.33 133.707C2355.46 132.728 2357.13 132.728 2358.26 133.707L2407 176" stroke="white" stroke-width="4"/>
<path d="M-331 220L-282.263 177.706C-281.134 176.727 -279.458 176.727 -278.33 177.706L-231.559 218.294C-230.431 219.273 -228.754 219.273 -227.626 218.294L-180.855 177.706C-179.727 176.727 -178.051 176.727 -176.923 177.706L-130.151 218.294C-129.023 219.273 -127.347 219.273 -126.219 218.294L-79.4477 177.706C-78.3197 176.727 -76.6433 176.727 -75.5153 177.706L-28.744 218.294C-27.616 219.273 -25.9396 219.273 -24.8116 218.294L21.9597 177.706C23.0877 176.727 24.7641 176.727 25.8921 177.706L72.6634 218.294C73.7914 219.273 75.4678 219.273 76.5958 218.294L123.367 177.706C124.495 176.727 126.171 176.727 127.3 177.706L174.071 218.294C175.199 219.273 176.875 219.273 178.003 218.294L224.774 177.706C225.903 176.727 227.579 176.727 228.707 177.706L275.478 218.294C276.606 219.273 278.283 219.273 279.411 218.294L326.182 177.706C327.31 176.727 328.986 176.727 330.114 177.706L376.886 218.294C378.014 219.273 379.69 219.273 380.818 218.294L427.589 177.706C428.717 176.727 430.394 176.727 431.522 177.706L478.293 218.294C479.421 219.273 481.097 219.273 482.225 218.294L528.997 177.706C530.125 176.727 531.801 176.727 532.929 177.706L579.7 218.294C580.828 219.273 582.505 219.273 583.633 218.294L630.404 177.706C631.532 176.727 633.209 176.727 634.337 177.706L681.108 218.294C682.236 219.273 683.912 219.273 685.04 218.294L731.811 177.706C732.94 176.727 734.616 176.727 735.744 177.706L782.515 218.294C783.643 219.273 785.32 219.273 786.448 218.294L833.219 177.706C834.347 176.727 836.023 176.727 837.151 177.706L883.923 218.294C885.051 219.273 886.727 219.273 887.855 218.294L934.626 177.706C935.754 176.727 937.431 176.727 938.559 177.706L985.33 218.294C986.458 219.273 988.134 219.273 989.262 218.294L1036.03 177.706C1037.16 176.727 1038.84 176.727 1039.97 177.706L1086.74 218.294C1087.87 219.273 1089.54 219.273 1090.67 218.294L1137.44 177.706C1138.57 176.727 1140.25 176.727 1141.37 177.706L1188.14 218.294C1189.27 219.273 1190.95 219.273 1192.08 218.294L1238.85 177.706C1239.98 176.728 1241.65 176.728 1242.78 177.706L1289.55 218.294C1290.68 219.273 1292.36 219.273 1293.48 218.294L1340.26 177.706C1341.38 176.728 1343.06 176.728 1344.19 177.706L1390.96 218.294C1392.09 219.273 1393.76 219.273 1394.89 218.294L1441.66 177.706C1442.79 176.728 1444.47 176.728 1445.6 177.706L1492.37 218.294C1493.5 219.273 1495.17 219.273 1496.3 218.294L1543.07 177.706C1544.2 176.728 1545.88 176.728 1547 177.706L1593.77 218.294C1594.9 219.273 1596.58 219.273 1597.71 218.294L1644.48 177.707C1645.61 176.728 1647.28 176.728 1648.41 177.707L1695.18 218.294C1696.31 219.273 1697.99 219.273 1699.11 218.294L1745.89 177.707C1747.01 176.728 1748.69 176.728 1749.82 177.707L1796.59 218.294C1797.72 219.273 1799.39 219.273 1800.52 218.294L1847.29 177.707C1848.42 176.728 1850.1 176.728 1851.23 177.707L1898 218.294C1899.12 219.273 1900.8 219.273 1901.93 218.294L1948.7 177.707C1949.83 176.728 1951.5 176.728 1952.63 177.707L1999.4 218.294C2000.53 219.273 2002.21 219.273 2003.34 218.294L2050.11 177.707C2051.24 176.728 2052.91 176.728 2054.04 177.707L2100.81 218.294C2101.94 219.273 2103.62 219.273 2104.74 218.294L2151.52 177.707C2152.64 176.728 2154.32 176.728 2155.45 177.707L2202.22 218.294C2203.35 219.273 2205.02 219.273 2206.15 218.294L2252.92 177.707C2254.05 176.728 2255.73 176.728 2256.86 177.707L2303.63 218.294C2304.75 219.273 2306.43 219.273 2307.56 218.294L2354.33 177.707C2355.46 176.728 2357.13 176.728 2358.26 177.707L2407 220" stroke="white" stroke-width="5"/>
<path d="M-331 264L-282.263 221.706C-281.134 220.727 -279.458 220.727 -278.33 221.706L-231.559 262.294C-230.431 263.273 -228.754 263.273 -227.626 262.294L-180.855 221.706C-179.727 220.727 -178.051 220.727 -176.923 221.706L-130.151 262.294C-129.023 263.273 -127.347 263.273 -126.219 262.294L-79.4477 221.706C-78.3197 220.727 -76.6433 220.727 -75.5153 221.706L-28.744 262.294C-27.616 263.273 -25.9396 263.273 -24.8116 262.294L21.9597 221.706C23.0877 220.727 24.7641 220.727 25.8921 221.706L72.6634 262.294C73.7914 263.273 75.4678 263.273 76.5958 262.294L123.367 221.706C124.495 220.727 126.171 220.727 127.3 221.706L174.071 262.294C175.199 263.273 176.875 263.273 178.003 262.294L224.774 221.706C225.903 220.727 227.579 220.727 228.707 221.706L275.478 262.294C276.606 263.273 278.283 263.273 279.411 262.294L326.182 221.706C327.31 220.727 328.986 220.727 330.114 221.706L376.886 262.294C378.014 263.273 379.69 263.273 380.818 262.294L427.589 221.706C428.717 220.727 430.394 220.727 431.522 221.706L478.293 262.294C479.421 263.273 481.097 263.273 482.225 262.294L528.997 221.706C530.125 220.727 531.801 220.727 532.929 221.706L579.7 262.294C580.828 263.273 582.505 263.273 583.633 262.294L630.404 221.706C631.532 220.727 633.209 220.727 634.337 221.706L681.108 262.294C682.236 263.273 683.912 263.273 685.04 262.294L731.811 221.706C732.94 220.727 734.616 220.727 735.744 221.706L782.515 262.294C783.643 263.273 785.32 263.273 786.448 262.294L833.219 221.706C834.347 220.727 836.023 220.727 837.151 221.706L883.923 262.294C885.051 263.273 886.727 263.273 887.855 262.294L934.626 221.706C935.754 220.727 937.431 220.727 938.559 221.706L985.33 262.294C986.458 263.273 988.134 263.273 989.262 262.294L1036.03 221.706C1037.16 220.727 1038.84 220.727 1039.97 221.706L1086.74 262.294C1087.87 263.273 1089.54 263.273 1090.67 262.294L1137.44 221.706C1138.57 220.727 1140.25 220.727 1141.37 221.706L1188.14 262.294C1189.27 263.273 1190.95 263.273 1192.08 262.294L1238.85 221.706C1239.98 220.728 1241.65 220.728 1242.78 221.706L1289.55 262.294C1290.68 263.273 1292.36 263.273 1293.48 262.294L1340.26 221.706C1341.38 220.728 1343.06 220.728 1344.19 221.706L1390.96 262.294C1392.09 263.273 1393.76 263.273 1394.89 262.294L1441.66 221.706C1442.79 220.728 1444.47 220.728 1445.6 221.706L1492.37 262.294C1493.5 263.273 1495.17 263.273 1496.3 262.294L1543.07 221.706C1544.2 220.728 1545.88 220.728 1547 221.706L1593.77 262.294C1594.9 263.273 1596.58 263.273 1597.71 262.294L1644.48 221.707C1645.61 220.728 1647.28 220.728 1648.41 221.707L1695.18 262.294C1696.31 263.273 1697.99 263.273 1699.11 262.294L1745.89 221.707C1747.01 220.728 1748.69 220.728 1749.82 221.707L1796.59 262.294C1797.72 263.273 1799.39 263.273 1800.52 262.294L1847.29 221.707C1848.42 220.728 1850.1 220.728 1851.23 221.707L1898 262.294C1899.12 263.273 1900.8 263.273 1901.93 262.294L1948.7 221.707C1949.83 220.728 1951.5 220.728 1952.63 221.707L1999.4 262.294C2000.53 263.273 2002.21 263.273 2003.34 262.294L2050.11 221.707C2051.24 220.728 2052.91 220.728 2054.04 221.707L2100.81 262.294C2101.94 263.273 2103.62 263.273 2104.74 262.294L2151.52 221.707C2152.64 220.728 2154.32 220.728 2155.45 221.707L2202.22 262.294C2203.35 263.273 2205.02 263.273 2206.15 262.294L2252.92 221.707C2254.05 220.728 2255.73 220.728 2256.86 221.707L2303.63 262.294C2304.75 263.273 2306.43 263.273 2307.56 262.294L2354.33 221.707C2355.46 220.728 2357.13 220.728 2358.26 221.707L2407 264" stroke="white" stroke-width="6"/>
<path d="M-331 308L-282.263 265.706C-281.134 264.727 -279.458 264.727 -278.33 265.706L-231.559 306.294C-230.431 307.273 -228.754 307.273 -227.626 306.294L-180.855 265.706C-179.727 264.727 -178.051 264.727 -176.923 265.706L-130.151 306.294C-129.023 307.273 -127.347 307.273 -126.219 306.294L-79.4477 265.706C-78.3197 264.727 -76.6433 264.727 -75.5153 265.706L-28.744 306.294C-27.616 307.273 -25.9396 307.273 -24.8116 306.294L21.9597 265.706C23.0877 264.727 24.7641 264.727 25.8921 265.706L72.6634 306.294C73.7914 307.273 75.4678 307.273 76.5958 306.294L123.367 265.706C124.495 264.727 126.171 264.727 127.3 265.706L174.071 306.294C175.199 307.273 176.875 307.273 178.003 306.294L224.774 265.706C225.903 264.727 227.579 264.727 228.707 265.706L275.478 306.294C276.606 307.273 278.283 307.273 279.411 306.294L326.182 265.706C327.31 264.727 328.986 264.727 330.114 265.706L376.886 306.294C378.014 307.273 379.69 307.273 380.818 306.294L427.589 265.706C428.717 264.727 430.394 264.727 431.522 265.706L478.293 306.294C479.421 307.273 481.097 307.273 482.225 306.294L528.997 265.706C530.125 264.727 531.801 264.727 532.929 265.706L579.7 306.294C580.828 307.273 582.505 307.273 583.633 306.294L630.404 265.706C631.532 264.727 633.209 264.727 634.337 265.706L681.108 306.294C682.236 307.273 683.912 307.273 685.04 306.294L731.811 265.706C732.94 264.727 734.616 264.727 735.744 265.706L782.515 306.294C783.643 307.273 785.32 307.273 786.448 306.294L833.219 265.706C834.347 264.727 836.023 264.727 837.151 265.706L883.923 306.294C885.051 307.273 886.727 307.273 887.855 306.294L934.626 265.706C935.754 264.727 937.431 264.727 938.559 265.706L985.33 306.294C986.458 307.273 988.134 307.273 989.262 306.294L1036.03 265.706C1037.16 264.727 1038.84 264.727 1039.97 265.706L1086.74 306.294C1087.87 307.273 1089.54 307.273 1090.67 306.294L1137.44 265.706C1138.57 264.727 1140.25 264.727 1141.37 265.706L1188.14 306.294C1189.27 307.273 1190.95 307.273 1192.08 306.294L1238.85 265.706C1239.98 264.728 1241.65 264.728 1242.78 265.706L1289.55 306.294C1290.68 307.273 1292.36 307.273 1293.48 306.294L1340.26 265.706C1341.38 264.728 1343.06 264.728 1344.19 265.706L1390.96 306.294C1392.09 307.273 1393.76 307.273 1394.89 306.294L1441.66 265.706C1442.79 264.728 1444.47 264.728 1445.6 265.706L1492.37 306.294C1493.5 307.273 1495.17 307.273 1496.3 306.294L1543.07 265.706C1544.2 264.728 1545.88 264.728 1547 265.706L1593.77 306.294C1594.9 307.273 1596.58 307.273 1597.71 306.294L1644.48 265.707C1645.61 264.728 1647.28 264.728 1648.41 265.707L1695.18 306.294C1696.31 307.273 1697.99 307.273 1699.11 306.294L1745.89 265.707C1747.01 264.728 1748.69 264.728 1749.82 265.707L1796.59 306.294C1797.72 307.273 1799.39 307.273 1800.52 306.294L1847.29 265.707C1848.42 264.728 1850.1 264.728 1851.23 265.707L1898 306.294C1899.12 307.273 1900.8 307.273 1901.93 306.294L1948.7 265.707C1949.83 264.728 1951.5 264.728 1952.63 265.707L1999.4 306.294C2000.53 307.273 2002.21 307.273 2003.34 306.294L2050.11 265.707C2051.24 264.728 2052.91 264.728 2054.04 265.707L2100.81 306.294C2101.94 307.273 2103.62 307.273 2104.74 306.294L2151.52 265.707C2152.64 264.728 2154.32 264.728 2155.45 265.707L2202.22 306.294C2203.35 307.273 2205.02 307.273 2206.15 306.294L2252.92 265.707C2254.05 264.728 2255.73 264.728 2256.86 265.707L2303.63 306.294C2304.75 307.273 2306.43 307.273 2307.56 306.294L2354.33 265.707C2355.46 264.728 2357.13 264.728 2358.26 265.707L2407 308" stroke="white" stroke-width="7"/>
<path d="M-331 352L-282.263 309.706C-281.134 308.727 -279.458 308.727 -278.33 309.706L-231.559 350.294C-230.431 351.273 -228.754 351.273 -227.626 350.294L-180.855 309.706C-179.727 308.727 -178.051 308.727 -176.923 309.706L-130.151 350.294C-129.023 351.273 -127.347 351.273 -126.219 350.294L-79.4477 309.706C-78.3197 308.727 -76.6433 308.727 -75.5153 309.706L-28.744 350.294C-27.616 351.273 -25.9396 351.273 -24.8116 350.294L21.9597 309.706C23.0877 308.727 24.7641 308.727 25.8921 309.706L72.6634 350.294C73.7914 351.273 75.4678 351.273 76.5958 350.294L123.367 309.706C124.495 308.727 126.171 308.727 127.3 309.706L174.071 350.294C175.199 351.273 176.875 351.273 178.003 350.294L224.774 309.706C225.903 308.727 227.579 308.727 228.707 309.706L275.478 350.294C276.606 351.273 278.283 351.273 279.411 350.294L326.182 309.706C327.31 308.727 328.986 308.727 330.114 309.706L376.886 350.294C378.014 351.273 379.69 351.273 380.818 350.294L427.589 309.706C428.717 308.727 430.394 308.727 431.522 309.706L478.293 350.294C479.421 351.273 481.097 351.273 482.225 350.294L528.997 309.706C530.125 308.727 531.801 308.727 532.929 309.706L579.7 350.294C580.828 351.273 582.505 351.273 583.633 350.294L630.404 309.706C631.532 308.727 633.209 308.727 634.337 309.706L681.108 350.294C682.236 351.273 683.912 351.273 685.04 350.294L731.811 309.706C732.94 308.727 734.616 308.727 735.744 309.706L782.515 350.294C783.643 351.273 785.32 351.273 786.448 350.294L833.219 309.706C834.347 308.727 836.023 308.727 837.151 309.706L883.923 350.294C885.051 351.273 886.727 351.273 887.855 350.294L934.626 309.706C935.754 308.727 937.431 308.727 938.559 309.706L985.33 350.294C986.458 351.273 988.134 351.273 989.262 350.294L1036.03 309.706C1037.16 308.727 1038.84 308.727 1039.97 309.706L1086.74 350.294C1087.87 351.273 1089.54 351.273 1090.67 350.294L1137.44 309.706C1138.57 308.727 1140.25 308.727 1141.37 309.706L1188.14 350.294C1189.27 351.273 1190.95 351.273 1192.08 350.294L1238.85 309.706C1239.98 308.728 1241.65 308.728 1242.78 309.706L1289.55 350.294C1290.68 351.273 1292.36 351.273 1293.48 350.294L1340.26 309.706C1341.38 308.728 1343.06 308.728 1344.19 309.706L1390.96 350.294C1392.09 351.273 1393.76 351.273 1394.89 350.294L1441.66 309.706C1442.79 308.728 1444.47 308.728 1445.6 309.706L1492.37 350.294C1493.5 351.273 1495.17 351.273 1496.3 350.294L1543.07 309.706C1544.2 308.728 1545.88 308.728 1547 309.706L1593.77 350.294C1594.9 351.273 1596.58 351.273 1597.71 350.294L1644.48 309.707C1645.61 308.728 1647.28 308.728 1648.41 309.707L1695.18 350.294C1696.31 351.273 1697.99 351.273 1699.11 350.294L1745.89 309.707C1747.01 308.728 1748.69 308.728 1749.82 309.707L1796.59 350.294C1797.72 351.273 1799.39 351.273 1800.52 350.294L1847.29 309.707C1848.42 308.728 1850.1 308.728 1851.23 309.707L1898 350.294C1899.12 351.273 1900.8 351.273 1901.93 350.294L1948.7 309.707C1949.83 308.728 1951.5 308.728 1952.63 309.707L1999.4 350.294C2000.53 351.273 2002.21 351.273 2003.34 350.294L2050.11 309.707C2051.24 308.728 2052.91 308.728 2054.04 309.707L2100.81 350.294C2101.94 351.273 2103.62 351.273 2104.74 350.294L2151.52 309.707C2152.64 308.728 2154.32 308.728 2155.45 309.707L2202.22 350.294C2203.35 351.273 2205.02 351.273 2206.15 350.294L2252.92 309.707C2254.05 308.728 2255.73 308.728 2256.86 309.707L2303.63 350.294C2304.75 351.273 2306.43 351.273 2307.56 350.294L2354.33 309.707C2355.46 308.728 2357.13 308.728 2358.26 309.707L2407 352" stroke="white" stroke-width="8"/>
</svg>
