<svg width="1011" height="358" viewBox="0 0 1011 358" fill="none" xmlns="http://www.w3.org/2000/svg">
<path d="M283.281 81.9228C292.963 85.5118 300.459 90.7393 305.768 97.6052C311.078 104.471 313.733 112.741 313.733 122.416C313.733 136.772 307.798 147.929 295.93 155.887C284.062 163.69 266.884 167.591 244.397 167.591H0V3.74503H239.712C261.575 3.74503 278.05 7.64612 289.137 15.4483C300.381 23.2505 306.003 33.6273 306.003 46.5789C306.003 54.2251 304.051 61.091 300.146 67.1767C296.399 73.2624 290.777 78.1777 283.281 81.9228ZM54.3442 42.3658V66.7085H232.216C244.241 66.7085 250.253 62.6514 250.253 54.5372C250.253 46.4229 244.241 42.3658 232.216 42.3658H54.3442ZM239.712 128.97C251.893 128.97 257.983 124.679 257.983 116.096C257.983 107.514 251.893 103.223 239.712 103.223H54.3442V128.97H239.712Z" fill="white"/>
<path d="M333.277 3.74503H388.558V124.757H462.579V167.591H333.277V3.74503Z" fill="white"/>
<path d="M561.528 171.336C543.882 171.336 528.031 167.669 513.977 160.335C499.922 153.001 488.913 142.858 480.949 129.906C472.984 116.798 469.002 102.052 469.002 85.6678C469.002 69.2833 472.984 54.6152 480.949 41.6636C488.913 28.5559 499.922 18.3351 513.977 11.0011C528.031 3.66702 543.882 0 561.528 0C579.174 0 595.025 3.66702 609.079 11.0011C623.134 18.3351 634.143 28.5559 642.107 41.6636C650.071 54.6152 654.054 69.2833 654.054 85.6678C654.054 102.052 650.071 116.798 642.107 129.906C634.143 142.858 623.134 153.001 609.079 160.335C595.025 167.669 579.174 171.336 561.528 171.336ZM561.528 126.629C568.399 126.629 574.567 124.991 580.033 121.714C585.655 118.281 590.105 113.522 593.385 107.436C596.664 101.194 598.304 93.9381 598.304 85.6678C598.304 77.3975 596.664 70.2195 593.385 64.1338C590.105 57.8921 585.655 53.1328 580.033 49.8559C574.567 46.4229 568.399 44.7064 561.528 44.7064C554.657 44.7064 548.41 46.4229 542.789 49.8559C537.323 53.1328 532.95 57.8921 529.671 64.1338C526.392 70.2195 524.752 77.3975 524.752 85.6678C524.752 93.9381 526.392 101.194 529.671 107.436C532.95 113.522 537.323 118.281 542.789 121.714C548.41 124.991 554.657 126.629 561.528 126.629Z" fill="white"/>
<path d="M782.572 81.2206H830.592V150.504C820.91 157.214 809.666 162.363 796.861 165.952C784.056 169.541 771.485 171.336 759.148 171.336C741.658 171.336 725.964 167.747 712.065 160.569C698.167 153.235 687.235 143.092 679.271 130.14C671.463 117.033 667.559 102.208 667.559 85.6678C667.559 69.1272 671.463 54.3811 679.271 41.4295C687.235 28.3219 698.245 18.179 712.299 11.0011C726.51 3.66702 742.517 0 760.319 0C776.404 0 790.771 2.73075 803.42 8.19226C816.225 13.4977 826.844 21.2999 835.277 31.5988L799.906 62.7295C789.599 50.7141 777.341 44.7064 763.13 44.7064C750.949 44.7064 741.267 48.3734 734.084 55.7075C726.9 63.0415 723.309 73.0283 723.309 85.6678C723.309 97.9952 726.822 107.904 733.85 115.394C741.033 122.884 750.559 126.629 762.427 126.629C769.455 126.629 776.169 125.303 782.572 122.65V81.2206Z" fill="white"/>
<path d="M146.401 358L145.933 283.333L110.328 343.254H85.9669L50.3621 285.908V358H0V194.154H45.443L98.8502 281.461L150.852 194.154H196.295L196.763 358H146.401Z" fill="white"/>
<path d="M475.42 316.336V358H223.491V194.154H472.375V235.818H277.835V255.011H462.771V294.802H277.835V316.336H475.42Z" fill="white"/>
<path d="M502.785 194.154H583.599C601.87 194.154 617.955 197.509 631.853 204.219C645.907 210.773 656.761 220.214 664.413 232.541C672.221 244.869 676.125 259.381 676.125 276.077C676.125 292.774 672.221 307.286 664.413 319.613C656.761 331.941 645.907 341.459 631.853 348.169C617.955 354.723 601.87 358 583.599 358H502.785V194.154ZM581.257 314.932C593.125 314.932 602.573 311.577 609.6 304.867C616.783 298.001 620.375 288.405 620.375 276.077C620.375 263.75 616.783 254.231 609.6 247.521C602.573 240.655 593.125 237.222 581.257 237.222H558.067V314.932H581.257Z" fill="white"/>
<path d="M696.31 194.154H751.591V358H696.31V194.154Z" fill="white"/>
<path d="M889.937 329.444H827.628L816.619 358H760.401L832.079 194.154H886.423L958.101 358H900.946L889.937 329.444ZM874.711 289.653L858.782 248.458L842.854 289.653H874.711Z" fill="white"/>
<path d="M952.779 168.932C945.419 168.932 938.841 167.782 933.045 165.482C927.249 163.09 922.649 159.824 919.245 155.684C915.933 151.544 914.277 146.898 914.277 141.746C914.277 136.686 915.381 132.178 917.589 128.222C919.889 124.266 923.385 120.632 928.077 117.32C932.861 114.008 938.933 110.834 946.293 107.798C951.169 105.682 954.987 103.796 957.747 102.14C960.507 100.484 962.439 98.92 963.543 97.448C964.739 95.884 965.337 94.32 965.337 92.756C965.337 90.824 964.693 89.26 963.405 88.064C962.117 86.868 960.185 86.27 957.609 86.27C954.941 86.27 952.825 86.96 951.261 88.34C949.789 89.72 949.053 91.422 949.053 93.446C949.053 94.642 949.283 95.838 949.743 97.034C950.295 98.23 951.307 99.61 952.779 101.174C954.343 102.738 956.505 104.762 959.265 107.246L1010.19 152.51L996.111 168.656L938.703 117.458C935.575 114.698 932.999 112.03 930.975 109.454C929.043 106.878 927.571 104.302 926.559 101.726C925.639 99.15 925.179 96.528 925.179 93.86C925.179 88.892 926.513 84.568 929.181 80.888C931.849 77.116 935.621 74.218 940.497 72.194C945.373 70.078 951.077 69.02 957.609 69.02C963.589 69.02 968.787 69.94 973.203 71.78C977.711 73.62 981.207 76.288 983.691 79.784C986.175 83.28 987.417 87.42 987.417 92.204C987.417 96.436 986.313 100.3 984.105 103.796C981.989 107.292 978.677 110.512 974.169 113.456C969.753 116.4 964.095 119.298 957.195 122.15C952.963 123.898 949.559 125.646 946.983 127.394C944.499 129.142 942.705 130.936 941.601 132.776C940.497 134.524 939.945 136.548 939.945 138.848C939.945 140.688 940.543 142.39 941.739 143.954C942.935 145.518 944.637 146.76 946.845 147.68C949.053 148.508 951.675 148.922 954.711 148.922C960.047 148.922 964.969 147.634 969.477 145.058C973.985 142.39 977.849 138.526 981.069 133.466C984.381 128.406 986.635 122.288 987.831 115.112L1008.95 121.46C1006.92 130.936 1003.24 139.216 997.905 146.3C992.661 153.384 986.175 158.95 978.447 162.998C970.811 166.954 962.255 168.932 952.779 168.932Z" fill="white"/>
</svg>
