<svg width="1648" height="350" viewBox="0 0 1648 350" fill="none" xmlns="http://www.w3.org/2000/svg">
<path d="M0 342.35V7.65026H405.048C452.306 7.65026 487.178 15.9381 509.666 32.5137C532.154 48.7705 543.398 69.6494 543.398 95.1503C543.398 112.045 538.509 127.186 528.732 140.574C519.28 153.643 505.429 164.003 487.178 171.653C468.927 179.303 446.439 183.128 419.714 183.128L429.492 157.309C456.216 157.309 479.193 160.975 498.422 168.306C517.977 175.638 532.969 186.316 543.398 200.342C554.153 214.048 559.53 230.624 559.53 250.068C559.53 279.076 547.146 301.708 522.376 317.964C497.933 334.221 462.083 342.35 414.826 342.35H0ZM87.2745 263.456H405.048C417.759 263.456 427.21 261.225 433.403 256.762C439.921 252.3 443.18 245.765 443.18 237.158C443.18 228.552 439.921 222.017 433.403 217.555C427.21 213.092 417.759 210.861 405.048 210.861H79.4526V136.27H389.405C402.441 136.27 411.893 134.199 417.759 130.055C423.951 125.592 427.047 119.376 427.047 111.407C427.047 103.119 423.951 96.9035 417.759 92.7596C411.893 88.6156 402.441 86.5437 389.405 86.5437H87.2745V263.456Z" fill="#003642"/>
<path d="M600.32 342.35V7.65026H715.693V254.85H870.175V342.35H600.32Z" fill="#003642"/>
<path d="M1076.68 350C1048.98 350 1023.23 345.697 999.442 337.09C975.976 328.484 955.607 316.371 938.333 300.751C921.06 284.813 907.535 266.166 897.757 244.809C888.306 223.452 883.58 200.182 883.58 175C883.58 149.499 888.306 126.229 897.757 105.191C907.535 83.8342 921.06 65.3461 938.333 49.7268C955.607 33.7887 975.976 21.5164 999.442 12.9098C1023.23 4.30328 1048.98 0 1076.68 0C1104.71 0 1130.46 4.30328 1153.92 12.9098C1177.39 21.5164 1197.76 33.7887 1215.03 49.7268C1232.31 65.3461 1245.67 83.8342 1255.12 105.191C1264.9 126.229 1269.79 149.499 1269.79 175C1269.79 200.182 1264.9 223.452 1255.12 244.809C1245.67 266.166 1232.31 284.813 1215.03 300.751C1197.76 316.371 1177.39 328.484 1153.92 337.09C1130.46 345.697 1104.71 350 1076.68 350ZM1076.68 258.675C1087.44 258.675 1097.38 256.762 1106.5 252.937C1115.95 249.112 1124.1 243.693 1130.95 236.68C1138.12 229.349 1143.66 220.583 1147.57 210.383C1151.48 199.863 1153.43 188.069 1153.43 175C1153.43 161.931 1151.48 150.296 1147.57 140.096C1143.66 129.577 1138.12 120.811 1130.95 113.798C1124.1 106.466 1115.95 100.888 1106.5 97.0629C1097.38 93.2377 1087.44 91.3251 1076.68 91.3251C1065.93 91.3251 1055.82 93.2377 1046.37 97.0629C1037.25 100.888 1029.1 106.466 1021.93 113.798C1015.09 120.811 1009.71 129.577 1005.8 140.096C1001.89 150.296 999.931 161.931 999.931 175C999.931 188.069 1001.89 199.863 1005.8 210.383C1009.71 220.583 1015.09 229.349 1021.93 236.68C1029.1 243.693 1037.25 249.112 1046.37 252.937C1055.82 256.762 1065.93 258.675 1076.68 258.675Z" fill="#003642"/>
<path d="M1489.12 350C1461.42 350 1435.83 345.856 1412.37 337.568C1389.23 328.962 1369.02 316.849 1351.75 301.23C1334.8 285.61 1321.6 267.122 1312.15 245.765C1302.7 224.408 1297.97 200.82 1297.97 175C1297.97 149.18 1302.7 125.592 1312.15 104.235C1321.6 82.878 1334.96 64.3898 1352.24 48.7705C1369.51 33.1512 1389.88 21.1976 1413.34 12.9098C1437.14 4.30328 1463.21 0 1491.56 0C1525.46 0 1555.6 5.57831 1582 16.7349C1608.73 27.8916 1630.73 43.8297 1648 64.5492L1574.18 128.142C1563.43 116.029 1551.69 106.944 1538.98 100.888C1526.6 94.5127 1512.75 91.3251 1497.43 91.3251C1484.72 91.3251 1473.15 93.2377 1462.72 97.0629C1452.62 100.888 1443.98 106.466 1436.81 113.798C1429.64 121.129 1424.1 129.895 1420.19 140.096C1416.28 150.296 1414.32 161.931 1414.32 175C1414.32 187.432 1416.28 198.907 1420.19 209.426C1424.1 219.627 1429.64 228.393 1436.81 235.724C1443.98 243.056 1452.45 248.793 1462.23 252.937C1472.33 256.762 1483.58 258.675 1495.96 258.675C1509 258.675 1521.71 256.603 1534.09 252.459C1546.48 247.996 1559.68 240.505 1573.69 229.986L1638.22 307.445C1617.36 321.152 1593.57 331.671 1566.85 339.003C1540.12 346.334 1514.21 350 1489.12 350ZM1538 293.101V165.915H1638.22V307.445L1538 293.101Z" fill="#003642"/>
</svg>
