<svg width="1920" height="58" viewBox="0 0 1920 58" fill="none" xmlns="http://www.w3.org/2000/svg">
<g clip-path="url(#clip0_974_69)">
<path d="M0 57.7829H137.128L70.7286 0L0 57.7829Z" fill="#F15E47"/>
<path d="M137.128 57.7829H274.308L207.857 0L137.128 57.7829Z" fill="#F15E47"/>
<path d="M274.308 57.7829H411.436L345.036 0L274.308 57.7829Z" fill="#F15E47"/>
<path d="M411.436 57.7829H548.564L482.164 0L411.436 57.7829Z" fill="#F15E47"/>
<path d="M548.564 57.7829H685.692L619.293 0L548.564 57.7829Z" fill="#F15E47"/>
<path d="M685.692 57.7829H822.872L756.421 0L685.692 57.7829Z" fill="#F15E47"/>
<path d="M822.872 57.7829H960L893.601 0L822.872 57.7829Z" fill="#F15E47"/>
<path d="M960 57.7829H1097.13L1030.73 0L960 57.7829Z" fill="#F15E47"/>
<path d="M1097.13 57.7829H1234.26L1167.86 0L1097.13 57.7829Z" fill="#F15E47"/>
<path d="M1234.26 57.7829H1371.44L1304.98 0L1234.26 57.7829Z" fill="#F15E47"/>
<path d="M1371.44 57.7829H1508.56L1442.16 0L1371.44 57.7829Z" fill="#F15E47"/>
<path d="M1508.56 57.7829H1645.69L1579.29 0L1508.56 57.7829Z" fill="#F15E47"/>
<path d="M1645.69 57.7829H1782.87L1716.42 0L1645.69 57.7829Z" fill="#F15E47"/>
<path d="M1853.6 0L1782.87 57.7829H1920L1853.6 0Z" fill="#F15E47"/>
</g>
<defs>
<clipPath id="clip0_974_69">
<rect width="1920" height="57.7829" fill="white"/>
</clipPath>
</defs>
</svg>
