<svg width="880" height="84" viewBox="0 0 880 84" fill="none" xmlns="http://www.w3.org/2000/svg">
<path d="M34.2041 82.815C27.625 82.815 21.2701 82.0674 15.1395 80.5721C9.00896 79.0769 3.96244 77.133 0 74.7406L8.52299 55.4517C12.2612 57.6198 16.4105 59.3768 20.9711 60.7225C25.6064 61.9935 30.0922 62.629 34.4284 62.629C36.9704 62.629 38.9516 62.4794 40.3721 62.1804C41.8673 61.8066 42.9514 61.3206 43.6243 60.7225C44.2971 60.0496 44.6336 59.2646 44.6336 58.3675C44.6336 56.947 43.8486 55.8255 42.2785 55.0031C40.7085 54.1807 38.6152 53.5079 35.9984 52.9845C33.4565 52.3864 30.6529 51.7883 27.5876 51.1902C24.5223 50.5173 21.4196 49.6576 18.2796 48.6109C15.2143 47.5642 12.3733 46.1811 9.75659 44.4615C7.21464 42.742 5.15865 40.4991 3.58863 37.7328C2.0186 34.8918 1.23359 31.378 1.23359 27.1912C1.23359 22.3316 2.57933 17.9206 5.2708 13.9582C8.03703 9.92096 12.1116 6.70615 17.4946 4.31373C22.9523 1.92131 29.7183 0.725098 37.7928 0.725098C43.1009 0.725098 48.3344 1.28582 53.493 2.40726C58.6517 3.52871 63.287 5.24826 67.3989 7.56592L59.4367 26.7427C55.549 24.7988 51.7735 23.3409 48.1101 22.369C44.5214 21.3971 41.0076 20.9111 37.5685 20.9111C35.0265 20.9111 33.0079 21.1354 31.5127 21.584C30.0174 22.0326 28.9333 22.6307 28.2605 23.3783C27.6624 24.126 27.3633 24.9484 27.3633 25.8455C27.3633 27.1912 28.1483 28.2753 29.7183 29.0977C31.2884 29.8453 33.3444 30.4808 35.8863 31.0042C38.503 31.5275 41.344 32.0882 44.4093 32.6863C47.5493 33.2844 50.652 34.1068 53.7173 35.1535C56.7826 36.2002 59.5862 37.5833 62.1282 39.3029C64.7449 41.0224 66.8382 43.2653 68.4083 46.0316C69.9783 48.7978 70.7633 52.2369 70.7633 56.3489C70.7633 61.1337 69.3802 65.5447 66.6139 69.5819C63.9225 73.5444 59.8853 76.7592 54.5023 79.2264C49.1194 81.6188 42.3533 82.815 34.2041 82.815Z" fill="white"/>
<path d="M102.862 31.677H166.242V50.7416H102.862V31.677ZM104.656 61.0589H172.298V81.0207H78.6388V2.51941H170.84V22.4812H104.656V61.0589Z" fill="white"/>
<path d="M206.71 31.677H270.09V50.7416H206.71V31.677ZM208.504 61.0589H276.146V81.0207H182.487V2.51941H274.688V22.4812H208.504V61.0589Z" fill="white"/>
<path d="M348.347 81.0207V2.51941H370.103L401.503 53.7695H390.065L420.568 2.51941H442.324L442.548 81.0207H418.437L418.213 38.8543H422.026L401.167 73.9556H389.504L367.748 38.8543H372.458V81.0207H348.347Z" fill="white"/>
<path d="M578.795 81.0207V2.51941H616.588C623.915 2.51941 630.233 3.71562 635.541 6.10804C640.924 8.50046 645.073 11.9396 647.989 16.4253C650.905 20.8364 652.362 26.0698 652.362 32.1256C652.362 38.1814 650.905 43.4148 647.989 47.8259C645.073 52.1621 640.924 55.4891 635.541 57.8067C630.233 60.1244 623.915 61.2832 616.588 61.2832H593.486L605.262 50.4052V81.0207H578.795ZM625.784 81.0207L606.495 52.4238H634.531L654.045 81.0207H625.784ZM605.262 53.321L593.486 41.3215H614.906C618.57 41.3215 621.261 40.4991 622.981 38.8543C624.775 37.2095 625.672 34.9666 625.672 32.1256C625.672 29.2846 624.775 27.0417 622.981 25.3969C621.261 23.7521 618.57 22.9297 614.906 22.9297H593.486L605.262 10.9303V53.321Z" fill="white"/>
<path d="M686.58 31.677H749.96V50.7416H686.58V31.677ZM688.374 61.0589H756.016V81.0207H662.356V2.51941H754.558V22.4812H688.374V61.0589Z" fill="white"/>
<path fill-rule="evenodd" clip-rule="evenodd" d="M492.545 0.725098C469.809 0.725098 451.378 19.1562 451.378 41.8921C451.378 64.6281 469.809 83.0592 492.545 83.0592H529.453C552.189 83.0592 570.62 64.6281 570.62 41.8921C570.62 19.1562 552.189 0.725098 529.453 0.725098H492.545ZM493.964 24.8576C484.556 24.8576 476.929 32.4843 476.929 41.8923C476.929 51.3002 484.556 58.9269 493.964 58.9269H528.033C537.441 58.9269 545.067 51.3002 545.067 41.8923C545.067 32.4843 537.441 24.8576 528.033 24.8576H493.964Z" fill="white"/>
<path fill-rule="evenodd" clip-rule="evenodd" d="M818.693 82.2504L880 41.489L818.693 0.727674V25.5343H786.546V56.6465H818.693V82.2504Z" fill="white"/>
</svg>
