<svg width="1920" height="58" viewBox="0 0 1920 58" fill="none" xmlns="http://www.w3.org/2000/svg">
<g clip-path="url(#clip0_974_84)">
<path d="M1920 0.000315574L1782.87 0.000303586L1849.27 57.7832L1920 0.000315574Z" fill="#003642"/>
<path d="M1782.87 0.000315574L1645.69 0.000303582L1712.14 57.7832L1782.87 0.000315574Z" fill="#003642"/>
<path d="M1645.69 0.000315574L1508.56 0.000303586L1574.96 57.7832L1645.69 0.000315574Z" fill="#003642"/>
<path d="M1508.56 0.000315574L1371.44 0.000303586L1437.84 57.7832L1508.56 0.000315574Z" fill="#003642"/>
<path d="M1371.44 0.000315574L1234.31 0.000303586L1300.71 57.7832L1371.44 0.000315574Z" fill="#003642"/>
<path d="M1234.31 0.000315574L1097.13 0.000303582L1163.58 57.7832L1234.31 0.000315574Z" fill="#003642"/>
<path d="M1097.13 0.000315574L960 0.000303586L1026.4 57.7832L1097.13 0.000315574Z" fill="#003642"/>
<path d="M960 0.000315574L822.872 0.000303586L889.271 57.7832L960 0.000315574Z" fill="#003642"/>
<path d="M822.872 0.000315574L685.744 0.000303586L752.143 57.7832L822.872 0.000315574Z" fill="#003642"/>
<path d="M685.744 0.000315574L548.564 0.000303582L615.016 57.7832L685.744 0.000315574Z" fill="#003642"/>
<path d="M548.564 0.000315574L411.436 0.000303586L477.836 57.7832L548.564 0.000315574Z" fill="#003642"/>
<path d="M411.436 0.000315574L274.308 0.000303586L340.707 57.7832L411.436 0.000315574Z" fill="#003642"/>
<path d="M274.308 0.000315574L137.128 0.000303582L203.579 57.7832L274.308 0.000315574Z" fill="#003642"/>
<path d="M66.3993 57.7832L137.128 0.000315574L-7.49905e-05 0.000303586L66.3993 57.7832Z" fill="#003642"/>
</g>
<defs>
<clipPath id="clip0_974_84">
<rect width="1920" height="57.7829" fill="white" transform="translate(1920 57.7832) rotate(-180)"/>
</clipPath>
</defs>
</svg>
