<svg width="1920" height="191" viewBox="0 0 1920 191" fill="none" xmlns="http://www.w3.org/2000/svg">
<path fill-rule="evenodd" clip-rule="evenodd" d="M0 191H1920V0.472363L1789.02 167.276C1787.61 169.105 1785.79 170.587 1783.7 171.606C1781.62 172.626 1779.33 173.156 1777.01 173.156C1774.68 173.156 1772.39 172.626 1770.31 171.606C1768.22 170.587 1766.4 169.105 1764.99 167.276L1636.49 0.472363L1505.2 167.276C1503.79 169.105 1501.97 170.586 1499.9 171.606C1497.82 172.625 1495.53 173.156 1493.21 173.156C1490.89 173.156 1488.6 172.625 1486.52 171.606C1484.44 170.586 1482.63 169.105 1481.21 167.276L1352.88 0.472363L1221.85 167.118C1220.44 168.947 1218.63 170.429 1216.55 171.448C1214.47 172.468 1212.18 172.998 1209.86 172.998C1207.54 172.998 1205.25 172.468 1203.17 171.448C1201.09 170.429 1199.28 168.947 1197.87 167.118L1069.59 0.314909L938.347 167.276C936.936 169.105 935.12 170.586 933.04 171.606C930.961 172.625 928.672 173.156 926.353 173.156C924.034 173.156 921.746 172.625 919.666 171.606C917.586 170.586 915.771 169.105 914.36 167.276L785.974 0L654.734 166.961C653.323 168.79 651.508 170.271 649.428 171.291C647.348 172.31 645.06 172.841 642.741 172.841C640.422 172.841 638.134 172.31 636.054 171.291C633.974 170.271 632.158 168.79 630.748 166.961L502.467 0.157454L371.228 167.118C369.817 168.947 368.001 170.429 365.921 171.448C363.842 172.468 361.554 172.998 359.234 172.998C356.915 172.998 354.627 172.468 352.547 171.448C350.467 170.429 348.652 168.947 347.241 167.118L218.96 0.314909L87.7737 167.276C86.3575 169.105 84.5372 170.587 82.4531 171.606C80.3691 172.626 78.0771 173.156 75.7541 173.156C73.431 173.156 71.1391 172.626 69.055 171.606C66.971 170.587 65.1506 169.105 63.7344 167.276L0 84.2895V191Z" fill="#003642"/>
</svg>
