<svg width="347" height="341" viewBox="0 0 347 341" fill="none" xmlns="http://www.w3.org/2000/svg">
<path d="M300.79 54.9088L237.76 137.614C235.836 140.138 237.476 143.789 240.64 144.027L344.331 151.852L244.725 181.713C241.686 182.625 240.866 186.542 243.286 188.595L322.574 255.873L224.439 221.485C221.445 220.436 218.479 223.123 219.23 226.206L243.83 327.24L184.651 241.737C182.845 239.128 178.866 239.559 177.661 242.495L138.177 338.692L140.557 234.734C140.63 231.562 137.157 229.572 134.457 231.239L45.9702 285.856L109.001 203.151C110.924 200.627 109.284 196.977 106.12 196.738L2.4296 188.913L102.035 159.052C105.075 158.14 105.894 154.223 103.475 152.17L24.1863 84.8918L122.321 119.28C125.316 120.329 128.281 117.642 127.53 114.559L102.93 13.5251L162.11 99.0281C163.916 101.637 167.895 101.206 169.099 98.2705L208.583 2.07261L206.203 106.031C206.131 109.203 209.603 111.193 212.303 109.526L300.79 54.9088Z" fill="white" stroke="#003642" stroke-width="4" stroke-linejoin="round"/>
</svg>
