<svg width="128" height="39" viewBox="0 0 128 39" fill="none" xmlns="http://www.w3.org/2000/svg">
<path d="M0 0.775085H0.363851L11.0287 9.52262L21.4227 0.775085H21.7542V24.6928H15.3019V13.5575L11.0287 17.763H10.8751L6.48058 13.5575V24.6928H0V0.775085Z" fill="white"/>
<path d="M26.8155 7.36827H21.7539V0.775085H38.5395V7.36827H33.4497V24.6928H26.8155V7.36827Z" fill="white"/>
<path d="M45.2834 0.775085H44.8872L33.4502 24.6928H40.2704L40.8485 23.4092L43.5329 17.2513L43.5612 17.1795L44.9802 13.7595L46.3992 17.1795L49.1685 23.6964L49.6011 24.6928H56.7568L45.2834 0.775085Z" fill="white"/>
<path d="M70.2433 0.775085H70.6071L81.272 9.52262L91.666 0.775085H91.9975V24.6928H85.5452V13.5575L81.272 17.763H81.1184L76.7239 13.5575V24.6928H70.2393V0.775085H70.2433Z" fill="white"/>
<path d="M97.0635 7.36827H92.002V0.775085H108.788V7.36827H103.698V24.6928H97.0635V7.36827Z" fill="white"/>
<path d="M115.53 0.775085H115.134L103.697 24.6928H110.517L111.096 23.4092L113.78 17.2513L113.808 17.1795L115.227 13.7595L116.646 17.1795L119.416 23.6964L119.848 24.6928H127.004L115.53 0.775085Z" fill="white"/>
<path d="M61.9796 5.7525H61.6198L56.0771 17.3456H67.5384L61.9796 5.7525Z" fill="white"/>
<path d="M25.8613 35.0292H26.8032V37.4035C26.5283 37.6458 26.2049 37.8344 25.837 37.9645C25.4691 38.0947 25.0932 38.162 24.705 38.162C24.1593 38.162 23.666 38.0318 23.2254 37.767C22.7847 37.5022 22.4411 37.1387 22.1904 36.6764C21.9398 36.2096 21.8145 35.689 21.8145 35.1055C21.8145 34.522 21.9398 33.9969 22.1904 33.5346C22.4411 33.0679 22.7847 32.7043 23.2294 32.444C23.6741 32.1837 24.1674 32.049 24.7172 32.049C25.1659 32.049 25.5742 32.1298 25.9421 32.2959C26.31 32.462 26.6173 32.6998 26.8679 33.0185L26.2413 33.7007C25.833 33.2474 25.3398 33.0185 24.7616 33.0185C24.3857 33.0185 24.0501 33.1083 23.755 33.2833C23.4599 33.4583 23.2294 33.7052 23.0637 34.0239C22.8979 34.3425 22.813 34.7061 22.813 35.11C22.813 35.5139 22.8979 35.864 23.0637 36.1827C23.2294 36.5014 23.4599 36.7482 23.755 36.9322C24.0501 37.1117 24.3816 37.206 24.7536 37.206C25.174 37.206 25.5419 37.1028 25.8572 36.9008V35.0472L25.8613 35.0292Z" fill="white"/>
<path d="M28.9945 37.4661C28.5822 37.0038 28.376 36.344 28.376 35.4823V32.1251H29.3705V35.4419C29.3705 36.6088 29.8233 37.1923 30.7329 37.1923C31.6425 37.1923 32.0873 36.6088 32.0873 35.4419V32.1251H33.0656V35.4823C33.0656 36.344 32.8594 37.0038 32.4511 37.4661C32.0387 37.9284 31.4647 38.1573 30.7248 38.1573C29.985 38.1573 29.4069 37.9284 28.9945 37.4661Z" fill="white"/>
<path d="M34.7676 32.1206H35.7621V38.072H34.7676V32.1206Z" fill="white"/>
<path d="M37.5166 32.1206H39.8614C40.4314 32.1206 40.9408 32.2418 41.3855 32.4886C41.8303 32.7355 42.1739 33.0856 42.4205 33.5344C42.6671 33.9832 42.7884 34.5038 42.7884 35.0963C42.7884 35.6887 42.6671 36.2049 42.4205 36.6582C42.1739 37.107 41.8303 37.4571 41.3855 37.7039C40.9408 37.9508 40.4314 38.072 39.8614 38.072H37.5166V32.1206ZM39.8129 37.1384C40.2051 37.1384 40.5527 37.0532 40.8519 36.8871C41.1511 36.721 41.3815 36.4832 41.5432 36.1735C41.7049 35.8638 41.7858 35.5047 41.7858 35.0963C41.7858 34.6879 41.7049 34.3288 41.5432 34.0191C41.3815 33.7094 41.1511 33.4716 40.8519 33.3055C40.5527 33.1394 40.2091 33.0542 39.8129 33.0542H38.5111V37.1339H39.8129V37.1384Z" fill="white"/>
<path d="M48.173 37.1474V38.0765H44.1504V32.1251H48.0638V33.0542H45.1449V34.6026H47.7323V35.5137H45.1449V37.1564H48.1689L48.173 37.1474Z" fill="white"/>
<path d="M50.0533 37.9645C49.6693 37.8343 49.362 37.6593 49.1396 37.4438L49.4833 36.5866C49.7016 36.7796 49.9725 36.9366 50.2918 37.0578C50.6112 37.179 50.9306 37.2418 51.254 37.2418C51.6543 37.2418 51.9494 37.17 52.1475 37.0309C52.3456 36.8873 52.4426 36.7033 52.4426 36.4699C52.4426 36.2993 52.386 36.1602 52.2768 36.048C52.1677 35.9358 52.0262 35.8505 51.8604 35.7877C51.6906 35.7248 51.4602 35.653 51.1691 35.5767C50.7608 35.469 50.4293 35.3613 50.1786 35.2536C49.928 35.1459 49.7097 34.9753 49.5278 34.7464C49.3458 34.5175 49.2569 34.2078 49.2569 33.8173C49.2569 33.4897 49.3377 33.189 49.4995 32.9197C49.6612 32.6504 49.9037 32.435 50.2272 32.2779C50.5506 32.1208 50.9468 32.04 51.4198 32.04C51.7472 32.04 52.0666 32.0849 52.386 32.1747C52.7013 32.2644 52.9762 32.3946 53.2067 32.5651L52.8914 33.4224C52.6569 33.2698 52.4103 33.1531 52.1556 33.0723C51.9009 32.9915 51.6543 32.9511 51.4117 32.9511C51.0195 32.9511 50.7244 33.0229 50.5344 33.171C50.3444 33.3191 50.2474 33.5121 50.2474 33.759C50.2474 33.9295 50.304 34.0687 50.4131 34.1764C50.5223 34.2841 50.6638 34.3694 50.8295 34.4322C50.9993 34.4951 51.2298 34.5669 51.5208 34.6432C51.9211 34.7464 52.2445 34.8496 52.4992 34.9618C52.7539 35.074 52.9722 35.2401 53.1541 35.469C53.3361 35.6979 53.425 36.0031 53.425 36.3891C53.425 36.7167 53.3441 37.0174 53.1824 37.2822C53.0207 37.547 52.7782 37.7625 52.4507 37.9196C52.1232 38.0767 51.727 38.1574 51.254 38.1574C50.8417 38.1574 50.4414 38.0901 50.0574 37.96L50.0533 37.9645Z" fill="white"/>
<path d="M62.0561 38.072L62.048 34.1268L60.2853 37.3898H59.8406L58.078 34.1762V38.072H57.1279V32.1206H57.9486L60.0792 36.0657L62.1693 32.1206H62.99L62.9981 38.072H62.0561Z" fill="white"/>
<path d="M68.23 36.6941H65.5496L65.02 38.072H63.9932L66.4067 32.1206H67.3891L69.8107 38.072H68.7677L68.23 36.6941ZM67.9025 35.8279L66.8918 33.2247L65.8892 35.8279H67.9025Z" fill="white"/>
<path d="M74.3059 38.072L73.2103 36.3306C73.1658 36.335 73.0971 36.3395 73.0041 36.3395H71.7953V38.072H70.8008V32.1206H73.0081C73.4731 32.1206 73.8773 32.2059 74.221 32.3764C74.5646 32.547 74.8314 32.7894 75.0134 33.108C75.1953 33.4267 75.2883 33.8037 75.2883 34.239C75.2883 34.6744 75.1912 35.0739 74.9931 35.397C74.795 35.7202 74.5161 35.9625 74.1482 36.1196L75.3813 38.0765H74.3099L74.3059 38.072ZM73.9461 33.3594C73.7197 33.1574 73.3922 33.0542 72.9596 33.0542H71.7953V35.4284H72.9596C73.3922 35.4284 73.7237 35.3252 73.9461 35.1187C74.1725 34.9123 74.2816 34.6205 74.2816 34.239C74.2816 33.8575 74.1684 33.5658 73.9461 33.3638V33.3594Z" fill="white"/>
<path d="M80.1802 36.6941H77.4998L76.9702 38.072H75.9434L78.3569 32.1206H79.3393L81.7609 38.072H80.7179L80.1802 36.6941ZM79.8527 35.8279L78.842 33.2247L77.8394 35.8279H79.8527Z" fill="white"/>
<path d="M83.564 33.0542H81.7852V32.1206H86.3333V33.0542H84.5545V38.072H83.5599V33.0542H83.564Z" fill="white"/>
<path d="M92.1589 32.1206V38.072H91.1644V35.5227H88.391V38.072H87.3965V32.1206H88.391V34.5801H91.1644V32.1206H92.1589Z" fill="white"/>
<path d="M94.8113 37.7625C94.3707 37.4977 94.027 37.1341 93.7764 36.6673C93.5257 36.2006 93.4004 35.6754 93.4004 35.0965C93.4004 34.5175 93.5257 33.9968 93.7764 33.5256C94.027 33.0588 94.3707 32.6908 94.8113 32.4305C95.252 32.1701 95.7412 32.0355 96.291 32.0355C96.8408 32.0355 97.33 32.1656 97.7706 32.4305C98.2113 32.6953 98.5549 33.0588 98.8056 33.5211C99.0562 33.9879 99.1816 34.5085 99.1816 35.092C99.1816 35.6754 99.0562 36.2006 98.8056 36.6628C98.5549 37.1296 98.2113 37.4932 97.7706 37.7535C97.33 38.0183 96.8368 38.1484 96.291 38.1484C95.7452 38.1484 95.252 38.0183 94.8113 37.7535V37.7625ZM97.2532 36.9187C97.5402 36.7391 97.7626 36.4923 97.9283 36.1691C98.09 35.8505 98.1749 35.4914 98.1749 35.092C98.1749 34.6925 98.0941 34.3379 97.9283 34.0148C97.7666 33.6961 97.5402 33.4448 97.2532 33.2653C96.9661 33.0857 96.6467 32.996 96.2869 32.996C95.9271 32.996 95.6078 33.0857 95.3207 33.2653C95.0337 33.4448 94.8113 33.6916 94.6456 34.0148C94.4839 34.3335 94.399 34.6925 94.399 35.092C94.399 35.4914 94.4798 35.846 94.6456 36.1691C94.8073 36.4878 95.0337 36.7391 95.3207 36.9187C95.6078 37.0982 95.9271 37.188 96.2869 37.188C96.6467 37.188 96.9661 37.0982 97.2532 36.9187Z" fill="white"/>
<path d="M105.18 32.1206V38.072H104.36L101.404 34.0416V38.072H100.418V32.1206H101.239L104.194 36.151V32.1206H105.18Z" fill="white"/>
</svg>
