<svg width="1781" height="263" viewBox="0 0 1781 263" fill="none" xmlns="http://www.w3.org/2000/svg">
<path fill-rule="evenodd" clip-rule="evenodd" d="M5.16026 0H0V263H91.9099V161.395L154.234 214.494H156.413L217.017 161.395V263H308.526V0L308.526 83.2474H380.311V263H474.4V83.2474H546.586V0H308.526H303.824L156.413 110.449L5.16026 0ZM590.482 263H495.343L636.604 0H642.223L783.934 263H684.717L658.048 207.127L637.923 163.945L617.798 207.127L617.397 208.034L590.482 263ZM1088.13 263H996.159V0H1001.38L1152.63 110.449L1300.04 0H1304.74V263H1213.23V161.395L1152.63 214.494H1150.45L1088.13 161.395V263ZM1680.99 263L1654.32 207.127L1634.2 163.945L1614.07 207.127L1613.67 208.034L1586.75 263H1491.62L1632.88 0H1638.5L1780.21 263H1680.99ZM1470.67 263V83.2474H1542.86V0H1304.8V83.2474H1376.59V263H1470.67ZM879.021 62.8464H873.918L795.311 209.224H957.859L879.021 62.8464Z" fill="#F05E47"/>
</svg>
