<svg width="110" height="114" viewBox="0 0 110 114" fill="none" xmlns="http://www.w3.org/2000/svg">
<path d="M106.23 38.7791L82.4385 53.0734C80.3987 54.2989 80.5295 57.2978 82.6682 58.3412L107.613 70.5106C108.61 70.9968 108.192 72.5022 107.087 72.4056L79.438 69.9858C77.0674 69.7783 75.4105 72.2813 76.5275 74.3825L89.5553 98.89C90.0758 99.8691 88.8531 100.842 88.0162 100.114L67.0697 81.9046C65.2738 80.3434 62.4622 81.3944 62.1307 83.7509L58.2653 111.235C58.1109 112.333 56.5501 112.402 56.3007 111.321L50.0579 84.2772C49.5226 81.9585 46.6302 81.1562 44.977 82.8678L25.6947 102.831C24.9244 103.629 23.6217 102.766 24.055 101.746L34.9004 76.1974C35.8303 74.0069 33.9618 71.6577 31.6183 72.0706L4.28446 76.8876C3.19243 77.08 2.64538 75.6167 3.59591 75.0456L27.387 60.7513C29.4268 59.5258 29.296 56.5269 27.1573 55.4835L2.21247 43.3141C1.21588 42.8279 1.63344 41.3225 2.73812 41.4192L30.3874 43.8389C32.758 44.0464 34.4149 41.5434 33.298 39.4422L20.2702 14.9347C19.7497 13.9556 20.9724 12.9831 21.8093 13.7106L42.7557 31.9201C44.5516 33.4814 47.3633 32.4303 47.6947 30.0738L51.5602 2.58933C51.7146 1.49128 53.2754 1.4232 53.5248 2.50369L59.7676 29.5475C60.3028 31.8662 63.1953 32.6685 64.8485 30.9569L84.1307 10.9935C84.9011 10.1959 86.2038 11.0583 85.7705 12.079L74.925 37.6273C73.9952 39.8178 75.8636 42.1671 78.2072 41.7541L105.541 36.9371C106.633 36.7447 107.18 38.208 106.23 38.7791Z" stroke="white" stroke-opacity="0.6" stroke-width="2"/>
</svg>
