<svg width="448" height="415" viewBox="0 0 448 415" fill="none" xmlns="http://www.w3.org/2000/svg">
<path d="M281.841 1.7162C282.591 0.246738 284.818 0.889 284.671 2.53226L272.936 133.333C272.762 135.275 274.779 136.66 276.529 135.801L396.993 76.6131C398.482 75.8813 399.881 77.7519 398.759 78.974L309.585 176.059C308.235 177.529 309.067 179.911 311.039 180.22L445.829 201.337C447.483 201.597 447.534 203.96 445.893 204.29L313.565 230.926C311.581 231.325 310.869 233.794 312.336 235.188L410.163 328.193C411.377 329.346 410.075 331.319 408.537 330.658L283.199 276.764C281.366 275.976 279.393 277.549 279.753 279.512L303.542 409.171C303.841 410.803 301.661 411.642 300.79 410.229L230.336 295.988C229.313 294.328 226.868 294.427 225.982 296.163L166.269 413.129C165.519 414.599 163.292 413.957 163.439 412.313L175.174 281.512C175.348 279.57 173.331 278.185 171.582 279.045L51.1174 338.232C49.628 338.964 48.2287 337.094 49.3513 335.871L138.525 238.787C139.875 237.317 139.043 234.935 137.071 234.626L2.2814 213.508C0.627609 213.249 0.576525 210.886 2.21758 210.556L134.545 183.92C136.529 183.52 137.241 181.052 135.774 179.657L37.9467 86.6528C36.7335 85.4995 38.0349 83.5265 39.5728 84.1877L164.911 138.081C166.745 138.87 168.717 137.297 168.357 135.333L144.568 5.67452C144.269 4.04232 146.449 3.204 147.32 4.61647L217.774 118.858C218.797 120.517 221.242 120.419 222.128 118.682L281.841 1.7162Z" stroke="white" stroke-opacity="0.6" stroke-linejoin="round"/>
</svg>
