<svg width="81" height="81" viewBox="0 0 81 81" fill="none" xmlns="http://www.w3.org/2000/svg">
<ellipse cx="40.4014" cy="40.2188" rx="40.4014" ry="40.2188" transform="rotate(180 40.4014 40.2188)" fill="white"/>
<path fill-rule="evenodd" clip-rule="evenodd" d="M37.8711 27.0267L26.0923 38.6395C25.3694 39.3521 25.3694 40.5075 26.0923 41.2201L37.8711 52.833C38.5939 53.5456 39.7658 53.5456 40.4886 52.833C41.2115 52.1203 41.2115 50.965 40.4886 50.2523L31.8694 41.7546L53.3132 41.7546C54.3354 41.7546 55.1641 40.9376 55.1641 39.9298C55.1641 38.922 54.3354 38.105 53.3132 38.105L31.8694 38.105L40.4886 29.6073C41.2115 28.8947 41.2114 27.7393 40.4886 27.0267C39.7658 26.314 38.5939 26.314 37.8711 27.0267Z" fill="#003642"/>
</svg>
